<svg xmlns="http://www.w3.org/2000/svg" viewBox="0 0 900 600">
  <path fill="#fff" d="M0 0h900v600H0z"/>
  <g transform="translate(450 300) rotate(-34)">
    <path fill="#c60c30" d="M0-120a120 120 0 0 1 0 240 60 60 0 0 1 0-120 60 60 0 0 0 0-120z"/>
    <path fill="#003478" d="M0 120a120 120 0 0 1 0-240 60 60 0 0 1 0 120 60 60 0 0 0 0 120z"/>
  </g>
  <g stroke="#000" stroke-width="26">
    <path d="M188 126l110 80M158 168l110 80M602 394l110 80M632 352l110 80"/>
    <path d="M618 126l110 80M574 187l44-61M626 199l44-61M158 432l110-80M202 493l-44-61M254 455l-44-61"/>
  </g>
</svg>
